<svg width="55" height="55" viewBox="0 0 55 55" fill="none" xmlns="http://www.w3.org/2000/svg">
<circle cx="27.5" cy="18.3333" r="6.375" stroke="#222222" stroke-linecap="round"/>
<path d="M30.9923 14.5729C31.5094 13.6772 32.2805 12.955 33.2081 12.4976C34.1356 12.0402 35.178 11.8681 36.2034 12.0031C37.2288 12.1381 38.1911 12.5741 38.9687 13.256C39.7463 13.9379 40.3042 14.8351 40.5718 15.8341C40.8395 16.8331 40.805 17.889 40.4725 18.8684C40.1401 19.8477 39.5247 20.7065 38.7042 21.3361C37.8837 21.9657 36.8949 22.3378 35.8629 22.4055C34.8308 22.4731 33.8019 22.2332 32.9063 21.7161" stroke="#2A4157" stroke-opacity="0.24"/>
<path d="M24.0077 14.5729C23.4906 13.6772 22.7195 12.955 21.7919 12.4976C20.8644 12.0402 19.822 11.8681 18.7966 12.0031C17.7712 12.1381 16.8089 12.5741 16.0313 13.256C15.2537 13.9379 14.6958 14.8351 14.4282 15.8341C14.1605 16.8331 14.195 17.889 14.5275 18.8684C14.8599 19.8477 15.4753 20.7065 16.2958 21.3361C17.1163 21.9657 18.1051 22.3378 19.1371 22.4055C20.1692 22.4731 21.1981 22.2332 22.0937 21.7161" stroke="#2A4157" stroke-opacity="0.24"/>
<path d="M44.5228 36.722L44.031 36.8117L44.5228 36.722ZM29.9913 28.8427L29.622 28.5056L29.0016 29.1851L29.9093 29.336L29.9913 28.8427ZM39.3738 37.8125L38.8935 37.9515L38.998 38.3125H39.3738V37.8125ZM35.5209 26.8542C38.5334 26.8542 40.5154 28.5814 41.8345 30.7268C43.1604 32.8831 43.7741 35.4038 44.031 36.8117L45.0147 36.6323C44.7495 35.1783 44.1081 32.5151 42.6864 30.203C41.258 27.8799 39 25.8542 35.5209 25.8542V26.8542ZM30.3605 29.1799C31.6075 27.8141 33.271 26.8542 35.5209 26.8542V25.8542C32.9431 25.8542 31.0244 26.9697 29.622 28.5056L30.3605 29.1799ZM29.9093 29.336C35.5361 30.271 37.8946 34.4988 38.8935 37.9515L39.8541 37.6735C38.8062 34.0512 36.2495 29.3759 30.0732 28.3495L29.9093 29.336ZM43.5825 37.3125H39.3738V38.3125H43.5825V37.3125ZM44.031 36.8117C44.077 37.0641 43.8854 37.3125 43.5825 37.3125V38.3125C44.4627 38.3125 45.181 37.5439 45.0147 36.6323L44.031 36.8117Z" fill="#2A4157" fill-opacity="0.24"/>
<path d="M25.0087 28.8427L25.0907 29.336L25.9984 29.1851L25.378 28.5056L25.0087 28.8427ZM10.4771 36.722L10.969 36.8117H10.969L10.4771 36.722ZM15.6262 37.8125V38.3125H16.002L16.1065 37.9515L15.6262 37.8125ZM19.4792 26.8542C21.729 26.8542 23.3925 27.8141 24.6395 29.1799L25.378 28.5056C23.9757 26.9697 22.0569 25.8542 19.4792 25.8542V26.8542ZM10.969 36.8117C11.2259 35.4038 11.8396 32.8831 13.1655 30.7268C14.4846 28.5814 16.4666 26.8542 19.4792 26.8542V25.8542C16 25.8542 13.742 27.8799 12.3136 30.203C10.8919 32.5151 10.2505 35.1783 9.98524 36.6323L10.969 36.8117ZM11.4175 37.3125C11.1145 37.3125 10.923 37.0641 10.969 36.8117L9.98524 36.6323C9.81892 37.5439 10.5372 38.3125 11.4175 38.3125V37.3125ZM15.6262 37.3125H11.4175V38.3125H15.6262V37.3125ZM16.1065 37.9515C17.1054 34.4988 19.4639 30.271 25.0907 29.336L24.9268 28.3495C18.7505 29.3759 16.1938 34.0512 15.1459 37.6735L16.1065 37.9515Z" fill="#2A4157" fill-opacity="0.24"/>
<path d="M27.5 28.6458C38.0317 28.6458 39.7634 38.2459 40.0481 41.4029C40.0977 41.9529 39.6564 42.3958 39.1041 42.3958H15.8958C15.3435 42.3958 14.9022 41.9529 14.9518 41.4029C15.2366 38.2459 16.9682 28.6458 27.5 28.6458Z" stroke="#222222" stroke-linecap="round"/>
</svg>
