<svg width="55" height="55" viewBox="0 0 55 55" fill="none" xmlns="http://www.w3.org/2000/svg">
<path d="M34.5619 13.1738C34.9866 13.2191 35.3251 13.4139 35.5941 13.6191C35.8653 13.826 36.1545 14.1159 36.4525 14.4141L36.4603 14.4209L40.5433 18.5039L40.9984 18.9658C41.1415 19.1166 41.2728 19.2642 41.3812 19.4062C41.6157 19.7136 41.8363 20.1115 41.8363 20.625C41.8363 21.1385 41.6157 21.5364 41.3812 21.8438C41.2728 21.9858 41.1415 22.1334 40.9984 22.2842L40.5433 22.7461L21.724 41.5654C21.5669 41.7225 21.3627 41.9386 21.099 42.0879C20.9672 42.1624 20.8289 42.2155 20.6967 42.2568L20.3304 42.3545L12.5092 44.3096C12.3613 44.3465 12.1399 44.4048 11.9457 44.4238C11.739 44.444 11.2871 44.4506 10.9183 44.082C10.5496 43.7133 10.5563 43.2614 10.5765 43.0547C10.5955 42.8604 10.6538 42.6381 10.6908 42.4902L12.6459 34.6699L12.7435 34.3037C12.7849 34.1713 12.8378 34.0323 12.9125 33.9004L13.0355 33.7139C13.1665 33.5381 13.3172 33.3941 13.4349 33.2764L32.2533 14.457L32.2972 14.4141C32.5953 14.1159 32.8845 13.8261 33.1556 13.6191C33.463 13.3846 33.8617 13.1641 34.3754 13.1641L34.5619 13.1738Z" stroke="#33363F" stroke-width="2"/>
<path d="M28.6459 17.1875L35.5209 12.6042L42.3959 19.4792L37.8125 26.3542L28.6459 17.1875Z" fill="#33363F"/>
</svg>
