<svg width="35" height="35" viewBox="0 0 35 35" fill="none" xmlns="http://www.w3.org/2000/svg">
<g opacity="0.65">
<path d="M9.48278 10.1722C9.48761 10.1239 9.49003 10.0997 9.49223 10.0788C9.91932 6.0234 13.3284 2.93824 17.4062 2.9168C17.4272 2.91669 17.4515 2.91669 17.5 2.91669C17.5485 2.91669 17.5728 2.91669 17.5938 2.9168C21.6716 2.93824 25.0807 6.0234 25.5078 10.0788C25.51 10.0997 25.5124 10.1239 25.5172 10.1722L25.9352 14.352C26.051 15.5097 26.1089 16.0886 26.2472 16.6463C26.3766 17.1683 26.5584 17.676 26.7897 18.1615C27.0368 18.6803 27.3595 19.1643 28.0049 20.1324L30.0104 23.1406C30.9229 24.5094 31.3791 25.1937 31.0965 25.7219C30.8138 26.25 29.9913 26.25 28.3463 26.25H6.6537C5.00867 26.25 4.18616 26.25 3.90351 25.7219C3.62085 25.1937 4.0771 24.5094 4.9896 23.1406L6.99506 20.1324C7.64047 19.1643 7.96317 18.6803 8.21032 18.1615C8.44162 17.676 8.62338 17.1683 8.75283 16.6463C8.89114 16.0886 8.94903 15.5097 9.0648 14.352L9.48278 10.1722Z" fill="#222222"/>
<path d="M14.6827 30.0846C14.8489 30.2396 15.2151 30.3766 15.7244 30.4743C16.2338 30.572 16.8579 30.625 17.5 30.625C18.1421 30.625 18.7662 30.572 19.2756 30.4743C19.7849 30.3766 20.1511 30.2396 20.3173 30.0846" stroke="#222222" stroke-width="2" stroke-linecap="round"/>
</g>
</svg>
