<svg width="35" height="35" viewBox="0 0 35 35" fill="none" xmlns="http://www.w3.org/2000/svg">
<g opacity="0.65">
<path fill-rule="evenodd" clip-rule="evenodd" d="M3.79543 5.25368C2.91675 6.13236 2.91675 7.54657 2.91675 10.375V24.625C2.91675 27.4534 2.91675 28.8676 3.79543 29.7463C4.67411 30.625 6.08832 30.625 8.91674 30.625H26.0834C28.9118 30.625 30.3261 30.625 31.2047 29.7463C32.0834 28.8676 32.0834 27.4534 32.0834 24.625V10.375C32.0834 7.54657 32.0834 6.13236 31.2047 5.25368C30.3261 4.375 28.9118 4.375 26.0834 4.375H8.91675C6.08832 4.375 4.67411 4.375 3.79543 5.25368ZM23.3334 12.125C23.8857 12.125 24.3334 12.5727 24.3334 13.125V24.7917C24.3334 25.344 23.8857 25.7917 23.3334 25.7917C22.7811 25.7917 22.3334 25.344 22.3334 24.7917V13.125C22.3334 12.5727 22.7811 12.125 23.3334 12.125ZM12.6667 16.0417C12.6667 15.4894 12.219 15.0417 11.6667 15.0417C11.1145 15.0417 10.6667 15.4894 10.6667 16.0417V24.7917C10.6667 25.344 11.1145 25.7917 11.6667 25.7917C12.219 25.7917 12.6667 25.344 12.6667 24.7917V16.0417ZM18.5001 18.9583C18.5001 18.406 18.0524 17.9583 17.5001 17.9583C16.9478 17.9583 16.5001 18.406 16.5001 18.9583V24.7917C16.5001 25.344 16.9478 25.7917 17.5001 25.7917C18.0524 25.7917 18.5001 25.344 18.5001 24.7917V18.9583Z" fill="#222222"/>
</g>
</svg>
