<svg width="35" height="35" viewBox="0 0 35 35" fill="none" xmlns="http://www.w3.org/2000/svg">
<path fill-rule="evenodd" clip-rule="evenodd" d="M3.79534 5.25368C2.91666 6.13236 2.91666 7.54657 2.91666 10.375V24.625C2.91666 27.4534 2.91666 28.8676 3.79534 29.7463C4.67402 30.625 6.08824 30.625 8.91666 30.625H26.0833C28.9118 30.625 30.326 30.625 31.2047 29.7463C32.0833 28.8676 32.0833 27.4534 32.0833 24.625V10.375C32.0833 7.54657 32.0833 6.13236 31.2047 5.25368C30.326 4.375 28.9118 4.375 26.0833 4.375H8.91666C6.08824 4.375 4.67402 4.375 3.79534 5.25368ZM23.3333 12.125C23.8856 12.125 24.3333 12.5727 24.3333 13.125V24.7917C24.3333 25.344 23.8856 25.7917 23.3333 25.7917C22.781 25.7917 22.3333 25.344 22.3333 24.7917V13.125C22.3333 12.5727 22.781 12.125 23.3333 12.125ZM12.6667 16.0417C12.6667 15.4894 12.2189 15.0417 11.6667 15.0417C11.1144 15.0417 10.6667 15.4894 10.6667 16.0417V24.7917C10.6667 25.344 11.1144 25.7917 11.6667 25.7917C12.2189 25.7917 12.6667 25.344 12.6667 24.7917V16.0417ZM18.5 18.9583C18.5 18.406 18.0523 17.9583 17.5 17.9583C16.9477 17.9583 16.5 18.406 16.5 18.9583V24.7917C16.5 25.344 16.9477 25.7917 17.5 25.7917C18.0523 25.7917 18.5 25.344 18.5 24.7917V18.9583Z" fill="#222222"/>
</svg>
