<svg width="35" height="35" viewBox="0 0 35 35" fill="none" xmlns="http://www.w3.org/2000/svg">
<g opacity="0.65">
<path fill-rule="evenodd" clip-rule="evenodd" d="M2.91743 15.0417H32.0826C32.0742 11.5747 31.9753 9.74644 30.8019 8.57306C29.5205 7.29166 27.4581 7.29166 23.3333 7.29166H11.6667C7.54187 7.29166 5.47948 7.29166 4.19807 8.57306C3.02469 9.74644 2.92577 11.5747 2.91743 15.0417ZM32.0833 17.0417H2.91666V20.4167C2.91666 24.5414 2.91666 26.6038 4.19807 27.8853C5.47948 29.1667 7.54187 29.1667 11.6667 29.1667H23.3333C27.4581 29.1667 29.5205 29.1667 30.8019 27.8853C32.0833 26.6038 32.0833 24.5414 32.0833 20.4167L32.0833 17.0417ZM10.2083 22.3333C9.65605 22.3333 9.20833 22.781 9.20833 23.3333C9.20833 23.8856 9.65605 24.3333 10.2083 24.3333H10.2229C10.7752 24.3333 11.2229 23.8856 11.2229 23.3333C11.2229 22.781 10.7752 22.3333 10.2229 22.3333H10.2083Z" fill="#222222"/>
</g>
</svg>
