<svg width="35" height="35" viewBox="0 0 35 35" fill="none" xmlns="http://www.w3.org/2000/svg">
<g opacity="0.65">
<path d="M2.91666 11.2917C2.91666 9.40605 2.91666 8.46324 3.50245 7.87746C4.08824 7.29167 5.03105 7.29167 6.91666 7.29167H28.0833C29.9689 7.29167 30.9118 7.29167 31.4975 7.87746C32.0833 8.46324 32.0833 9.40605 32.0833 11.2917V13.5833C32.0833 14.0547 32.0833 14.2904 31.9369 14.4369C31.7904 14.5833 31.5547 14.5833 31.0833 14.5833H3.91666C3.44526 14.5833 3.20956 14.5833 3.06311 14.4369C2.91666 14.2904 2.91666 14.0547 2.91666 13.5833V11.2917Z" fill="#222222"/>
<path fill-rule="evenodd" clip-rule="evenodd" d="M2.91666 28.0833C2.91666 29.969 2.91666 30.9118 3.50245 31.4975C4.08824 32.0833 5.03105 32.0833 6.91666 32.0833H28.0833C29.9689 32.0833 30.9118 32.0833 31.4975 31.4975C32.0833 30.9118 32.0833 29.969 32.0833 28.0833V18.5C32.0833 18.0286 32.0833 17.7929 31.9369 17.6464C31.7904 17.5 31.5547 17.5 31.0833 17.5H3.91666C3.44526 17.5 3.20956 17.5 3.06311 17.6464C2.91666 17.7929 2.91666 18.0286 2.91666 18.5V28.0833ZM10.2083 21.4167C10.2083 20.9453 10.2083 20.7096 10.3548 20.5631C10.5012 20.4167 10.7369 20.4167 11.2083 20.4167H15.0417C15.5131 20.4167 15.7488 20.4167 15.8952 20.5631C16.0417 20.7096 16.0417 20.9453 16.0417 21.4167V22.3333V22.3333C16.0417 22.8047 16.0417 23.0404 15.8952 23.1869C15.7488 23.3333 15.5131 23.3333 15.0417 23.3333H11.2083C10.7369 23.3333 10.5012 23.3333 10.3548 23.1869C10.2083 23.0404 10.2083 22.8047 10.2083 22.3333V21.4167ZM10.3548 26.3964C10.2083 26.5429 10.2083 26.7786 10.2083 27.25V28.1667C10.2083 28.6381 10.2083 28.8738 10.3548 29.0202C10.5012 29.1667 10.7369 29.1667 11.2083 29.1667H15.0417C15.5131 29.1667 15.7488 29.1667 15.8952 29.0202C16.0417 28.8738 16.0417 28.6381 16.0417 28.1667V27.25C16.0417 26.7786 16.0417 26.5429 15.8952 26.3964C15.7488 26.25 15.5131 26.25 15.0417 26.25H11.2083C10.7369 26.25 10.5012 26.25 10.3548 26.3964ZM18.9583 21.4167C18.9583 20.9453 18.9583 20.7096 19.1048 20.5631C19.2512 20.4167 19.4869 20.4167 19.9583 20.4167H23.7917C24.2631 20.4167 24.4988 20.4167 24.6452 20.5631C24.7917 20.7096 24.7917 20.9453 24.7917 21.4167V22.3333C24.7917 22.8047 24.7917 23.0404 24.6452 23.1869C24.4988 23.3333 24.2631 23.3333 23.7917 23.3333H19.9583C19.4869 23.3333 19.2512 23.3333 19.1048 23.1869C18.9583 23.0404 18.9583 22.8047 18.9583 22.3333V21.4167ZM19.1048 26.3964C18.9583 26.5429 18.9583 26.7786 18.9583 27.25V28.1667C18.9583 28.6381 18.9583 28.8738 19.1048 29.0202C19.2512 29.1667 19.4869 29.1667 19.9583 29.1667H23.7917C24.2631 29.1667 24.4988 29.1667 24.6452 29.0202C24.7917 28.8738 24.7917 28.6381 24.7917 28.1667V27.25C24.7917 26.7786 24.7917 26.5429 24.6452 26.3964C24.4988 26.25 24.2631 26.25 23.7917 26.25H19.9583C19.4869 26.25 19.2512 26.25 19.1048 26.3964Z" fill="#222222"/>
<path d="M10.2083 4.375L10.2083 8.75" stroke="#222222" stroke-width="2" stroke-linecap="round"/>
<path d="M24.7917 4.375L24.7917 8.75" stroke="#222222" stroke-width="2" stroke-linecap="round"/>
</g>
</svg>
