<svg width="35" height="35" viewBox="0 0 35 35" fill="none" xmlns="http://www.w3.org/2000/svg">
<g opacity="0.65">
<path fill-rule="evenodd" clip-rule="evenodd" d="M14.5833 4.29166C12.9265 4.29166 11.5833 5.6348 11.5833 7.29166H10.9375C8.88933 7.29166 7.86524 7.29166 7.12959 7.7832C6.81112 7.996 6.53768 8.26944 6.32488 8.58791C5.83334 9.32356 5.83334 10.3476 5.83334 12.3958V26.25C5.83334 28.9998 5.83334 30.3748 6.68761 31.229C7.54188 32.0833 8.91681 32.0833 11.6667 32.0833H23.3333C26.0832 32.0833 27.4581 32.0833 28.3124 31.229C29.1667 30.3748 29.1667 28.9998 29.1667 26.25V12.3958C29.1667 10.3476 29.1667 9.32356 28.6751 8.58791C28.4623 8.26944 28.1889 7.996 27.8704 7.7832C27.1348 7.29166 26.1107 7.29166 24.0625 7.29166H23.4167C23.4167 5.6348 22.0735 4.29166 20.4167 4.29166H14.5833ZM15.0417 7.29166C15.0417 6.73937 15.4894 6.29166 16.0417 6.29166H18.9583C19.5106 6.29166 19.9583 6.73937 19.9583 7.29166C19.9583 7.84394 19.5106 8.29166 18.9583 8.29166H16.0417C15.4894 8.29166 15.0417 7.84394 15.0417 7.29166ZM13.125 16.5C12.5727 16.5 12.125 16.9477 12.125 17.5C12.125 18.0523 12.5727 18.5 13.125 18.5H21.875C22.4273 18.5 22.875 18.0523 22.875 17.5C22.875 16.9477 22.4273 16.5 21.875 16.5H13.125ZM13.125 22.3333C12.5727 22.3333 12.125 22.781 12.125 23.3333C12.125 23.8856 12.5727 24.3333 13.125 24.3333H18.9583C19.5106 24.3333 19.9583 23.8856 19.9583 23.3333C19.9583 22.781 19.5106 22.3333 18.9583 22.3333H13.125Z" fill="#222222"/>
</g>
</svg>
