<svg width="35" height="35" viewBox="0 0 35 35" fill="none" xmlns="http://www.w3.org/2000/svg">
<g opacity="0.65">
<path fill-rule="evenodd" clip-rule="evenodd" d="M17.9583 2.91667V11.125L17.9583 11.1794V11.1794V11.1794V11.1794C17.9582 11.6035 17.9582 12.0156 18.0039 12.3555C18.0554 12.7387 18.1809 13.176 18.5441 13.5392C18.9073 13.9024 19.3446 14.028 19.7278 14.0795C20.0677 14.1252 20.4798 14.1251 20.9039 14.125H20.9039H20.9039H20.9039L20.9583 14.125H29.1667V23.3333C29.1667 27.4581 29.1667 29.5205 27.8853 30.8019C26.6039 32.0833 24.5415 32.0833 20.4167 32.0833H14.5833C10.4585 32.0833 8.39615 32.0833 7.11474 30.8019C5.83334 29.5205 5.83334 27.4581 5.83334 23.3333V11.6667C5.83334 7.54188 5.83334 5.47949 7.11474 4.19808C8.39615 2.91667 10.4585 2.91667 14.5833 2.91667H17.9583ZM19.9583 2.91743V11.125C19.9583 11.6247 19.9605 11.8988 19.986 12.089L19.987 12.0963L19.9943 12.0973C20.1845 12.1229 20.4587 12.125 20.9583 12.125H29.1659C29.1616 11.2543 29.1333 10.7556 28.9447 10.3003C28.7226 9.7643 28.3011 9.3428 27.4581 8.4998L23.5835 4.62522C22.7405 3.78221 22.319 3.36071 21.783 3.13869C21.3277 2.95008 20.829 2.9217 19.9583 2.91743ZM12.125 18.9583C12.125 18.4061 12.5727 17.9583 13.125 17.9583L21.875 17.9583C22.4273 17.9583 22.875 18.4061 22.875 18.9583C22.875 19.5106 22.4273 19.9583 21.875 19.9583H13.125C12.5727 19.9583 12.125 19.5106 12.125 18.9583ZM13.125 23.7917C12.5727 23.7917 12.125 24.2394 12.125 24.7917C12.125 25.344 12.5727 25.7917 13.125 25.7917H18.9583C19.5106 25.7917 19.9583 25.344 19.9583 24.7917C19.9583 24.2394 19.5106 23.7917 18.9583 23.7917H13.125Z" fill="#222222"/>
</g>
</svg>
