<svg width="35" height="35" viewBox="0 0 35 35" fill="none" xmlns="http://www.w3.org/2000/svg">
<g opacity="0.65">
<circle cx="17.5" cy="13.125" r="5.83333" fill="#33363F"/>
<circle cx="24.7917" cy="13.125" r="4.375" fill="#33363F"/>
<circle cx="10.2083" cy="13.125" r="4.375" fill="#33363F"/>
<path fill-rule="evenodd" clip-rule="evenodd" d="M25.6207 26.25H29.5201C30.1117 26.25 30.5656 25.7413 30.4425 25.1626C30.0101 23.13 28.6524 18.9583 24.7917 18.9583C23.4995 18.9583 22.4877 19.4257 21.6972 20.1238C23.8959 21.5503 25.0328 24.0483 25.6207 26.25Z" fill="#33363F"/>
<path fill-rule="evenodd" clip-rule="evenodd" d="M13.3029 20.1237C12.5123 19.4257 11.5005 18.9583 10.2083 18.9583C6.34763 18.9583 4.98992 23.13 4.55753 25.1626C4.43443 25.7413 4.88835 26.25 5.47997 26.25H9.37935C9.96718 24.0482 11.1041 21.5503 13.3029 20.1237Z" fill="#33363F"/>
<path d="M17.5 20.4167C23.2616 20.4167 24.4706 25.8797 24.7243 28.1725C24.785 28.7214 24.344 29.1667 23.7917 29.1667H11.2083C10.6561 29.1667 10.215 28.7214 10.2757 28.1725C10.5294 25.8797 11.7385 20.4167 17.5 20.4167Z" fill="#33363F"/>
</g>
</svg>
