<svg width="49" height="44" viewBox="0 0 49 44" fill="none" xmlns="http://www.w3.org/2000/svg">
<path d="M19.4428 8.39573C21.5858 3.46524 22.6574 1 24.5 1C26.3426 1 27.4142 3.46524 29.5572 8.39573L29.657 8.62532C30.8677 11.4108 31.4731 12.8035 32.7069 13.6501C33.9406 14.4966 35.5602 14.6305 38.7994 14.8982L39.3849 14.9466C44.6862 15.3847 47.3369 15.6038 47.904 17.1601C48.4712 18.7164 46.5027 20.3691 42.5658 23.6746L41.2518 24.7778C39.2589 26.4511 38.2624 27.2877 37.7979 28.3843C37.7113 28.5888 37.6393 28.7984 37.5823 29.0116C37.277 30.1548 37.5689 31.3685 38.1525 33.7959L38.3341 34.5515C39.4067 39.0127 39.9429 41.2433 39.0066 42.2054C38.6567 42.5649 38.202 42.8238 37.6968 42.951C36.3449 43.2914 34.4256 41.8481 30.587 38.9615C28.0664 37.066 26.8061 36.1183 25.3591 35.9051C24.79 35.8212 24.21 35.8212 23.6409 35.9051C22.1939 36.1183 20.9336 37.066 18.413 38.9615C14.5744 41.8481 12.6551 43.2914 11.3032 42.951C10.798 42.8238 10.3433 42.5649 9.99341 42.2054C9.05707 41.2433 9.59334 39.0127 10.6659 34.5515L10.8475 33.7959C11.4312 31.3685 11.723 30.1548 11.4177 29.0116C11.3607 28.7984 11.2887 28.5888 11.2021 28.3843C10.7376 27.2877 9.74113 26.4511 7.74817 24.7778L6.43422 23.6746C2.49726 20.3691 0.528785 18.7164 1.09596 17.1601C1.66313 15.6038 4.31377 15.3847 9.61505 14.9466L10.2006 14.8982C13.4398 14.6305 15.0594 14.4966 16.2931 13.6501C17.5269 12.8035 18.1323 11.4108 19.343 8.62532L19.4428 8.39573Z" stroke="#222222"/>
</svg>
