<svg width="35" height="35" viewBox="0 0 35 35" fill="none" xmlns="http://www.w3.org/2000/svg">
<g opacity="0.65">
<path fill-rule="evenodd" clip-rule="evenodd" d="M10.2084 9.66668H13.1251C14.2296 9.66668 15.1251 10.5621 15.1251 11.6667C15.1251 12.7712 14.2296 13.6667 13.1251 13.6667H10.2084V16.9583H13.1251C14.2296 16.9583 15.1251 17.8538 15.1251 18.9583C15.1251 20.0629 14.2296 20.9583 13.1251 20.9583H10.2084V24.25H13.1251C14.2296 24.25 15.1251 25.1454 15.1251 26.25C15.1251 27.3546 14.2296 28.25 13.1251 28.25H10.2317C10.2767 29.1128 10.4084 29.6534 10.7942 30.0392C11.38 30.625 12.3228 30.625 14.2084 30.625H25.1667C27.0524 30.625 27.9952 30.625 28.5809 30.0392C29.1667 29.4534 29.1667 28.5106 29.1667 26.625V9.83334C29.1667 7.94773 29.1667 7.00492 28.5809 6.41913C27.9952 5.83334 27.0524 5.83334 25.1667 5.83334H14.2084C12.3228 5.83334 11.38 5.83334 10.7942 6.41913C10.2259 6.9874 10.2089 7.89165 10.2084 9.66668ZM23.3333 15.5833C22.781 15.5833 22.3333 15.1356 22.3333 14.5833V11.6667C22.3333 11.1144 22.781 10.6667 23.3333 10.6667C23.8856 10.6667 24.3333 11.1144 24.3333 11.6667V14.5833C24.3333 15.1356 23.8856 15.5833 23.3333 15.5833ZM7.29166 10.6667C6.73938 10.6667 6.29166 11.1144 6.29166 11.6667C6.29166 12.219 6.73938 12.6667 7.29166 12.6667H13.125C13.6773 12.6667 14.125 12.219 14.125 11.6667C14.125 11.1144 13.6773 10.6667 13.125 10.6667H7.29166ZM7.29166 17.9583C6.73938 17.9583 6.29166 18.4061 6.29166 18.9583C6.29166 19.5106 6.73938 19.9583 7.29166 19.9583H13.125C13.6773 19.9583 14.125 19.5106 14.125 18.9583C14.125 18.4061 13.6773 17.9583 13.125 17.9583H7.29166ZM7.29166 25.25C6.73938 25.25 6.29166 25.6977 6.29166 26.25C6.29166 26.8023 6.73938 27.25 7.29166 27.25H13.125C13.6773 27.25 14.125 26.8023 14.125 26.25C14.125 25.6977 13.6773 25.25 13.125 25.25H7.29166Z" fill="#222222"/>
</g>
</svg>
