<svg width="35" height="35" viewBox="0 0 35 35" fill="none" xmlns="http://www.w3.org/2000/svg">
<g opacity="0.65">
<path fill-rule="evenodd" clip-rule="evenodd" d="M17.5 30.625C24.7487 30.625 30.625 24.7487 30.625 17.5C30.625 10.2513 24.7487 4.375 17.5 4.375C10.2513 4.375 4.375 10.2513 4.375 17.5C4.375 24.7487 10.2513 30.625 17.5 30.625ZM18.5 9.47917C18.5 8.92688 18.0523 8.47917 17.5 8.47917C16.9477 8.47917 16.5 8.92688 16.5 9.47917V17.25C16.5 17.9404 17.0596 18.5 17.75 18.5H22.6042C23.1565 18.5 23.6042 18.0523 23.6042 17.5C23.6042 16.9477 23.1565 16.5 22.6042 16.5H18.5V9.47917Z" fill="#222222"/>
</g>
</svg>
