<svg width="55" height="55" viewBox="0 0 55 55" fill="none" xmlns="http://www.w3.org/2000/svg">
<circle cx="27.5" cy="18.3333" r="8.16667" stroke="#33363F" stroke-width="2" stroke-linecap="round"/>
<path d="M33.8704 17.6875C34.6495 16.3381 35.9327 15.3535 37.4378 14.9502C38.9428 14.5469 40.5464 14.758 41.8958 15.5371C43.2452 16.3162 44.2299 17.5994 44.6332 19.1044C45.0364 20.6095 44.8253 22.2131 44.0462 23.5625C43.2672 24.9119 41.984 25.8965 40.4789 26.2998C38.9739 26.7031 37.3702 26.492 36.0208 25.7129C34.6714 24.9338 33.6868 23.6506 33.2835 22.1456C32.8803 20.6405 33.0914 19.0369 33.8704 17.6875L33.8704 17.6875Z" stroke="#33363F" stroke-width="2"/>
<path d="M10.9538 17.6875C11.7328 16.3381 13.016 15.3535 14.5211 14.9502C16.0261 14.5469 17.6298 14.758 18.9792 15.5371C20.3286 16.3162 21.3132 17.5994 21.7165 19.1044C22.1197 20.6095 21.9086 22.2131 21.1296 23.5625C20.3505 24.9119 19.0673 25.8965 17.5622 26.2998C16.0572 26.7031 14.4536 26.492 13.1042 25.7129C11.7548 24.9338 10.7701 23.6506 10.3668 22.1456C9.96356 20.6405 10.1747 19.0369 10.9538 17.6875L10.9538 17.6875Z" stroke="#33363F" stroke-width="2"/>
<path d="M38.687 41.25L37.7067 41.4474L37.8684 42.25H38.687V41.25ZM47.9041 40.1402L46.9331 40.3795V40.3795L47.9041 40.1402ZM33.8727 33.7116L33.2679 32.9153L32.1113 33.7938L33.3446 34.5608L33.8727 33.7116ZM46.9922 40.25H38.687V42.25H46.9922V40.25ZM46.9331 40.3795C46.9308 40.3702 46.9289 40.3499 46.9348 40.3252C46.9404 40.3021 46.9506 40.2846 46.9602 40.2731C46.9795 40.25 46.9967 40.25 46.9922 40.25V42.25C48.1744 42.25 49.1902 41.1802 48.875 39.901L46.9331 40.3795ZM38.9584 33.0833C41.7477 33.0833 43.563 34.311 44.7813 35.8239C46.0273 37.3711 46.6487 39.2252 46.9331 40.3795L48.875 39.901C48.5582 38.6151 47.846 36.4407 46.339 34.5695C44.8045 32.664 42.4475 31.0833 38.9584 31.0833V33.0833ZM34.4776 34.508C35.5797 33.6708 37.0262 33.0833 38.9584 33.0833V31.0833C36.5823 31.0833 34.7124 31.8181 33.2679 32.9153L34.4776 34.508ZM33.3446 34.5608C36.1711 36.3187 37.2792 39.3248 37.7067 41.4474L39.6674 41.0526C39.1961 38.7128 37.9167 35.0491 34.4008 32.8625L33.3446 34.5608Z" fill="#33363F"/>
<path d="M21.1273 33.7116L21.6554 34.5608L22.8887 33.7937L21.7321 32.9153L21.1273 33.7116ZM7.09593 40.1402L8.06689 40.3795L7.09593 40.1402ZM16.3129 41.25V42.25H17.1316L17.2932 41.4474L16.3129 41.25ZM16.0417 33.0833C17.9738 33.0833 19.4203 33.6708 20.5224 34.5079L21.7321 32.9153C20.2876 31.8181 18.4177 31.0833 16.0417 31.0833V33.0833ZM8.06689 40.3795C8.35134 39.2252 8.97275 37.3711 10.2187 35.8239C11.4371 34.311 13.2523 33.0833 16.0417 33.0833V31.0833C12.5526 31.0833 10.1956 32.664 8.66103 34.5695C7.15405 36.4407 6.44184 38.6151 6.12498 39.901L8.06689 40.3795ZM8.00778 40.25C8.0033 40.25 8.02051 40.2499 8.03981 40.2731C8.04943 40.2846 8.05957 40.3021 8.06515 40.3252C8.07112 40.3499 8.06919 40.3702 8.06689 40.3795L6.12498 39.901C5.80976 41.1802 6.82557 42.25 8.00778 42.25V40.25ZM16.3129 40.25H8.00778V42.25H16.3129V40.25ZM17.2932 41.4474C17.7207 39.3248 18.8288 36.3187 21.6554 34.5608L20.5992 32.8624C17.0832 35.0491 15.8038 38.7127 15.3326 41.0526L17.2932 41.4474Z" fill="#33363F"/>
<path d="M27.5 32.0833C36.8804 32.0833 38.5815 39.7627 38.89 42.5479C38.9508 43.0968 38.5106 43.5417 37.9583 43.5417H17.0417C16.4894 43.5417 16.0492 43.0968 16.11 42.5479C16.4185 39.7627 18.1195 32.0833 27.5 32.0833Z" stroke="#33363F" stroke-width="2" stroke-linecap="round"/>
</svg>
